<?xml version="1.0" standalone="no"?><!DOCTYPE svg PUBLIC "-//W3C//DTD SVG 1.1//EN" "http://www.w3.org/Graphics/SVG/1.1/DTD/svg11.dtd"><svg t="1733151830029" class="icon" viewBox="0 0 1024 1024" version="1.1" xmlns="http://www.w3.org/2000/svg" p-id="9585" xmlns:xlink="http://www.w3.org/1999/xlink" width="200" height="200"><path d="M336 800c22.048 0 40 17.936 40 40S358.048 880 336 880s-40-17.936-40-40S313.952 800 336 800M336 752c-48.608 0-88 39.408-88 88S287.392 928 336 928s88-39.408 88-88S384.608 752 336 752L336 752z" p-id="9586"></path><path d="M672 800c22.064 0 40 17.936 40 40S694.064 880 672 880s-40-17.936-40-40S649.936 800 672 800M672 752c-48.592 0-88 39.408-88 88S623.408 928 672 928s88-39.408 88-88S720.592 752 672 752L672 752z" p-id="9587"></path><path d="M680 304l-352 0c-70.576 0-128 57.424-128 128l0 160c0 70.576 57.424 128 128 128l352 0c70.576 0 128-57.424 128-128L808 432C808 361.424 750.576 304 680 304zM344 528c-26.512 0-48-21.488-48-48s21.488-48 48-48 48 21.488 48 48S370.512 528 344 528zM664 528c-26.496 0-48-21.488-48-48s21.504-48 48-48 48 21.488 48 48S690.496 528 664 528z" p-id="9588"></path><path d="M760 192l-35.872 0 87.968-51.216c11.376-6.64 15.28-21.312 8.72-32.784-6.576-11.488-21.12-15.424-32.528-8.784L628.928 192l-235.36 0-174.56-100.784c-11.488-6.624-26.16-2.688-32.784 8.784-6.624 11.472-2.688 26.144 8.784 32.784L297.552 192 248 192c-88.368 0-160 71.648-160 160l0 320c0 88.368 71.632 160 160 160l512 0c88.368 0 160-71.632 160-160L920 352C920 263.648 848.368 192 760 192zM840 592c0 88.368-71.632 160-160 160l-352 0c-88.368 0-160-71.632-160-160L168 432c0-88.368 71.632-160 160-160l352 0c88.368 0 160 71.632 160 160L840 592z" p-id="9589"></path></svg>