<?xml version="1.0" standalone="no"?><!DOCTYPE svg PUBLIC "-//W3C//DTD SVG 1.1//EN" "http://www.w3.org/Graphics/SVG/1.1/DTD/svg11.dtd"><svg t="1702563141934" class="icon" viewBox="0 0 1024 1024" version="1.1" xmlns="http://www.w3.org/2000/svg" p-id="4743" xmlns:xlink="http://www.w3.org/1999/xlink" width="200" height="200"><path d="M1002.666667 932.266667c6.4 23.466667-8.533333 46.933333-32 51.2-51.2 12.8-100.266667 17.066667-145.066667 17.066666-40.533333 0-76.8-4.266667-113.066667-12.8-2.133333 0-4.266667 0-6.4-2.133333-76.8-17.066667-145.066667-44.8-213.333333-72.533333-128-55.466667-249.6-106.666667-420.266667-64-23.466667 6.4-46.933333-8.533333-51.2-32-6.4-23.466667 8.533333-46.933333 32-51.2 53.333333-12.8 100.266667-17.066667 145.066667-17.066667l76.8-211.2c19.2-51.2 46.933333-96 83.2-136.533333 32-36.266667 70.4-64 110.933333-85.333334l29.866667-83.2c-21.333333-8.533333-34.133333-32-25.6-55.466666 8.533333-21.333333 32-34.133333 55.466667-25.6l40.533333 14.933333 44.8-119.466667c4.266667-10.666667 12.8-19.2 21.333333-23.466666 10.666667-4.266667 21.333333-4.266667 32-2.133334l200.533334 72.533334c21.333333 8.533333 34.133333 32 25.6 55.466666l-44.8 119.466667 40.533333 14.933333c21.333333 8.533333 34.133333 32 25.6 55.466667-6.4 17.066667-23.466667 27.733333-40.533333 27.733333-4.266667 0-10.666667 0-14.933334-2.133333l-27.733333 85.333333c21.333333 49.066667 29.866667 102.4 29.866667 155.733334 0 46.933333-8.533333 93.866667-25.6 138.666666l-61.866667 168.533334c53.333333 6.4 108.8 2.133333 172.8-12.8 25.6-4.266667 49.066667 10.666667 55.466667 32z m-311.466667-34.133334l66.133333-181.333333c12.8-36.266667 19.2-72.533333 19.2-110.933333 0-46.933333-10.666667-93.866667-29.866666-136.533334-4.266667-10.666667-6.4-21.333333-2.133334-32l36.266667-100.266666-98.133333-36.266667-100.266667-36.266667-36.266667 100.266667c-4.266667 10.666667-12.8 19.2-21.333333 23.466667-38.4 17.066667-72.533333 42.666667-100.266667 74.666666-27.733333 29.866667-51.2 68.266667-66.133333 106.666667l-68.266667 187.733333c87.466667 14.933333 164.266667 46.933333 241.066667 78.933334 51.2 25.6 104.533333 46.933333 160 61.866666z m-10.666667-778.666666l-29.866666 81.066666 59.733333 21.333334 59.733333 21.333333 29.866667-81.066667-119.466667-42.666666z" fill="#2F3CF4" p-id="4744"></path></svg>