<?xml version="1.0" standalone="no"?><!DOCTYPE svg PUBLIC "-//W3C//DTD SVG 1.1//EN" "http://www.w3.org/Graphics/SVG/1.1/DTD/svg11.dtd"><svg t="1733151757922" class="icon" viewBox="0 0 1024 1024" version="1.1" xmlns="http://www.w3.org/2000/svg" p-id="7027" xmlns:xlink="http://www.w3.org/1999/xlink" width="200" height="200"><path d="M896.364 453.059c-34.269-131.226-133.94-235.945-262.088-277.376C624.102 117.345 573.25 72.986 512 72.986c-61.25 0-112.108 44.364-122.276 102.702-128.112 41.436-227.727 146.135-262 277.34C57.508 480.435 15.36 515.492 15.36 553.702c0 38.206 42.153 73.247 112.358 100.654C172.293 825.021 327.368 951.014 512 951.014c184.648 0 339.799-125.993 384.364-296.678 70.164-27.407 112.276-62.444 112.276-100.634 0-38.195-42.117-73.236-112.276-100.643zM457.37 230.508v-32.943c0-0.066 0.01-0.128 0.01-0.189 0-0.077-0.01-0.154-0.01-0.23 0-30.173 24.458-54.63 54.63-54.63s54.63 24.457 54.63 54.63c0 0.061-0.01 0.117-0.01 0.179 0 0.082 0.01 0.159 0.01 0.24v32.943C679 249.375 771.953 325.396 814.597 427.684 730.813 407.05 625.894 394.772 512 394.772c-113.879 0-218.788 12.273-302.566 32.902C252.073 325.396 345.01 249.38 457.37 230.508zM833.265 612.47c-1.08 9.83-3.323 23.608-3.973 23.757-29.763 114.749-120.116 205.076-234.875 234.803-51.543-50.355-85.207-118.912-90.512-195.313 26.609-12.84 45.01-39.997 45.01-71.521 0-43.884-35.579-79.463-79.462-79.463s-79.463 35.58-79.463 79.463c0 31.222 18.048 58.158 44.242 71.152 4.29 77.405 32.267 148.434 76.744 206.116-150.4-0.46-276.884-102.236-314.962-240.645-1.167-0.23-4.244-16.445-4.552-29.174-67.358-13.66-106.572-36.295-106.572-57.943 0-49.372 191.221-89.395 427.11-89.395s427.11 40.023 427.11 89.395c0 22.426-39.628 43.249-105.845 58.768z" p-id="7028"></path></svg>